<svg width="176" height="37" viewBox="0 0 176 37" fill="none" xmlns="http://www.w3.org/2000/svg">
<path d="M41.5956 7.46054C43.5453 7.46054 45.2038 7.83676 46.5603 8.58919C47.9168 9.34162 49.0207 10.2951 49.8829 11.4497C50.7397 12.6043 51.3548 13.8757 51.7392 15.2638C52.1236 16.6519 52.3103 17.9686 52.3103 19.2141C52.3103 20.7708 52.0467 22.2368 51.5195 23.6119C50.9923 24.987 50.2564 26.187 49.3063 27.2119C48.3562 28.2368 47.2303 29.0476 45.9288 29.6443C44.6217 30.2411 43.1938 30.5395 41.6341 30.5395C40.6346 30.5395 39.7723 30.4357 39.0474 30.2281C38.3225 30.0205 37.6909 29.7741 37.1472 29.4886C36.609 29.2032 36.1642 28.9114 35.8237 28.613C35.4832 28.3146 35.2196 28.0616 35.0328 27.8541V37H28.47V8.2H34.6374V10.5741H34.7527C35.4118 9.74378 36.296 9.0173 37.4053 8.3946C38.5147 7.77189 39.9096 7.46054 41.5956 7.46054ZM67.9678 7.46054C69.9229 7.46054 71.5759 7.83676 72.9324 8.58919C74.2889 9.34162 75.3983 10.2951 76.255 11.4497C77.1118 12.6043 77.7323 13.8757 78.1113 15.2638C78.4957 16.6519 78.6879 17.9686 78.6879 19.2141C78.6879 20.7708 78.4243 22.2368 77.8971 23.6119C77.3699 24.987 76.6285 26.187 75.6839 27.2119C74.7338 28.2368 73.6024 29.0476 72.3008 29.6443C70.9938 30.2411 69.5659 30.5395 68.0117 30.5395C67.0067 30.5395 66.1444 30.4357 65.4195 30.2281C64.6946 30.0205 64.063 29.7741 63.5248 29.4886C62.9811 29.2032 62.5418 28.9114 62.1958 28.613C61.8553 28.3146 61.5917 28.0616 61.4049 27.8541V37H54.8421V8.2H61.0095V10.5741H61.1303C61.7894 9.74378 62.6736 9.0173 63.7774 8.3946C64.8868 7.77189 66.2817 7.46054 67.9678 7.46054ZM11.0332 7.46054C11.9284 7.46054 12.7302 7.55784 13.4442 7.75243C14.1526 7.94703 14.7732 8.19351 15.3004 8.49189C15.8277 8.79027 16.2615 9.11459 16.6075 9.46486C16.948 9.81514 17.2281 10.1589 17.4368 10.4962H17.5137V8.2H24.082V29.8H17.5137V27.4649H17.4368C17.1457 27.9838 16.7778 28.4378 16.3274 28.827C15.8826 29.2162 15.3663 29.5405 14.7897 29.8C14.2075 30.0595 13.5925 30.2476 12.9499 30.3643C12.3019 30.4811 11.6648 30.5395 11.0332 30.5395C9.2923 30.5395 7.73809 30.2281 6.36511 29.6054C4.99214 28.9827 3.83884 28.1395 2.90522 27.0757C1.9716 26.0119 1.25215 24.7859 0.75239 23.3978C0.247135 22.0097 0 20.5373 0 18.9805C0 17.2162 0.302059 15.6205 0.906168 14.1935C1.51577 12.7665 2.31758 11.5535 3.3226 10.5546C4.32213 9.55568 5.48641 8.79027 6.82094 8.25838C8.14998 7.72649 9.55591 7.46054 11.0332 7.46054ZM144.959 7.49946C146.963 7.49946 148.699 7.84973 150.176 8.55027C151.653 9.25081 152.878 10.1524 153.856 11.2551C154.833 12.3578 155.564 13.5903 156.052 14.9524C156.536 16.3146 156.783 17.6573 156.783 18.9805C156.783 20.3038 156.536 21.6465 156.052 23.0086C155.564 24.3708 154.833 25.6032 153.856 26.7059C152.878 27.8086 151.653 28.7103 150.176 29.4108C148.699 30.1114 146.963 30.4616 144.959 30.4616C142.954 30.4616 141.213 30.1114 139.741 29.4108C138.264 28.7103 137.039 27.8086 136.062 26.7059C135.084 25.6032 134.354 24.3708 133.865 23.0086C133.382 21.6465 133.135 20.3038 133.135 18.9805C133.135 17.6573 133.382 16.3146 133.865 14.9524C134.354 13.5903 135.084 12.3578 136.062 11.2551C137.034 10.1524 138.264 9.25081 139.741 8.55027C141.213 7.84973 142.954 7.49946 144.959 7.49946ZM101.781 7.46054C102.83 7.46054 103.879 7.64216 104.923 8.00541C105.966 8.36865 106.79 8.80973 107.394 9.32865C107.685 9.58811 107.982 9.89297 108.284 10.2432C108.586 10.5935 108.855 11.0411 109.097 11.5859C109.333 12.1308 109.53 12.7859 109.69 13.5514C109.843 14.3168 109.926 15.2314 109.926 16.2951V29.8H103.363V18.0076C103.363 17.6184 103.341 17.1708 103.303 16.6649C103.264 16.1589 103.138 15.6724 102.924 15.2054C102.715 14.7384 102.38 14.3427 101.919 14.0184C101.457 13.6941 100.793 13.5319 99.9196 13.5319C98.9695 13.5319 98.2446 13.707 97.7448 14.0573C97.2451 14.4076 96.8771 14.8227 96.641 15.3027C96.3993 15.7827 96.262 16.2757 96.2236 16.7816C96.1851 17.2876 96.1632 17.7092 96.1632 18.0465V29.8H89.6003V8.2H95.7293V10.4962H95.8062C95.9655 10.2368 96.1851 9.93189 96.4597 9.58162C96.7398 9.23135 97.1078 8.90054 97.5691 8.58919C98.0304 8.27784 98.6016 8.01189 99.2881 7.79135C99.9745 7.57081 100.804 7.46054 101.781 7.46054ZM133.492 7.46054V13.96C132.728 13.9859 132.031 14.0508 131.394 14.1546C130.762 14.2584 130.218 14.453 129.752 14.7384C129.296 15.0238 128.939 15.4259 128.686 15.9449C128.439 16.4638 128.313 17.1254 128.313 17.9297V29.8H121.75V8.2H127.917V10.4962H127.994C128.126 10.2368 128.313 9.93189 128.549 9.58162C128.785 9.23135 129.109 8.90054 129.515 8.58919C129.927 8.27784 130.455 8.01189 131.097 7.79135C131.745 7.57081 132.541 7.46054 133.492 7.46054ZM165.878 1V29.8H159.315V1H165.878ZM176 1V29.8H169.436V1H176ZM11.9778 13.493C11.0332 13.493 10.2204 13.6681 9.55042 14.0184C8.87491 14.3687 8.31474 14.8162 7.86989 15.3611C7.41956 15.9059 7.09004 16.5027 6.87586 17.1514C6.66717 17.8 6.56282 18.4357 6.56282 19.0584C6.56282 19.5773 6.66167 20.1481 6.85938 20.7708C7.05709 21.3935 7.37562 21.9838 7.80948 22.5416C8.24334 23.0995 8.80351 23.5665 9.49 23.9427C10.171 24.3189 11.0168 24.507 12.0218 24.507C13.0488 24.507 13.911 24.3189 14.6085 23.9427C15.3059 23.5665 15.8771 23.0995 16.3109 22.5416C16.7448 21.9838 17.0523 21.3805 17.2391 20.7319C17.4203 20.0832 17.5137 19.4995 17.5137 18.9805C17.5137 18.3319 17.4038 17.6832 17.1787 17.0346C16.9535 16.3859 16.613 15.7957 16.1517 15.2638C15.6904 14.7319 15.1082 14.3038 14.4107 13.9795C13.7133 13.6551 12.9005 13.493 11.9778 13.493ZM40.2501 13.493C39.355 13.493 38.5641 13.6616 37.8776 13.9989C37.1911 14.3362 36.62 14.7708 36.1587 15.3027C35.6973 15.8346 35.3514 16.4249 35.1097 17.0735C34.8736 17.7222 34.7527 18.3708 34.7527 19.0195C34.7527 19.6941 34.879 20.3622 35.1317 21.0238C35.3843 21.6854 35.7468 22.2757 36.2191 22.7946C36.6914 23.3135 37.268 23.7286 37.938 24.04C38.6135 24.3513 39.3824 24.507 40.2501 24.507C41.1233 24.507 41.8922 24.3513 42.5622 24.04C43.2377 23.7286 43.8089 23.3135 44.2867 22.7946C44.759 22.2757 45.1214 21.6854 45.3741 21.0238C45.6212 20.3622 45.7475 19.6941 45.7475 19.0195C45.7475 18.3708 45.6322 17.7222 45.3906 17.0735C45.1544 16.4249 44.8084 15.8346 44.3416 15.3027C43.8858 14.7708 43.3091 14.3362 42.6226 13.9989C41.9416 13.6616 41.1508 13.493 40.2501 13.493ZM66.6277 13.493C65.7325 13.493 64.9362 13.6616 64.2552 13.9989C63.5687 14.3362 62.9976 14.7708 62.5363 15.3027C62.0694 15.8346 61.7235 16.4249 61.4873 17.0735C61.2457 17.7222 61.1303 18.3708 61.1303 19.0195C61.1303 19.6941 61.2566 20.3622 61.5038 21.0238C61.7564 21.6854 62.1189 22.2757 62.5912 22.7946C63.069 23.3135 63.6401 23.7286 64.3156 24.04C64.9856 24.3513 65.7545 24.507 66.6277 24.507C67.4954 24.507 68.2698 24.3513 68.9398 24.04C69.6098 23.7286 70.1865 23.3135 70.6588 22.7946C71.1311 22.2757 71.499 21.6854 71.7462 21.0238C71.9988 20.3622 72.1251 19.6941 72.1251 19.0195C72.1251 18.3708 72.0043 17.7222 71.7681 17.0735C71.5265 16.4249 71.1805 15.8346 70.7192 15.3027C70.2579 14.7708 69.6867 14.3362 69.0002 13.9989C68.3137 13.6616 67.5229 13.493 66.6277 13.493ZM144.959 13.5319C144.245 13.5319 143.575 13.6681 142.943 13.9405C142.312 14.213 141.751 14.5892 141.263 15.0692C140.774 15.5492 140.389 16.1265 140.115 16.8011C139.84 17.4757 139.697 18.2022 139.697 18.9805C139.697 19.7589 139.84 20.4854 140.115 21.16C140.389 21.8346 140.774 22.4119 141.263 22.8919C141.751 23.3719 142.312 23.7481 142.943 24.0205C143.575 24.293 144.245 24.4292 144.959 24.4292C145.667 24.4292 146.343 24.293 146.974 24.0205C147.606 23.7481 148.166 23.3719 148.655 22.8919C149.144 22.4119 149.522 21.8346 149.803 21.16C150.077 20.4854 150.214 19.7589 150.214 18.9805C150.214 18.2022 150.077 17.4757 149.803 16.8011C149.528 16.1265 149.144 15.5492 148.655 15.0692C148.166 14.5892 147.606 14.213 146.974 13.9405C146.343 13.6681 145.673 13.5319 144.959 13.5319ZM87.0686 1L85.7231 12.5589H81.4943L80.1872 1H87.0686ZM119.257 1L117.911 12.5589H113.682L112.375 1H119.257Z" fill="black"/>
</svg>
